<svg xmlns="http://www.w3.org/2000/svg" xmlns:xlink="http://www.w3.org/1999/xlink" width="1366" zoomAndPan="magnify" viewBox="0 0 1024.5 576" height="768" preserveAspectRatio="xMidYMid meet" version="1.0"><defs><clipPath id="a30ff485c6"><path d="M 471 71.664062 L 916.8125 71.664062 L 916.8125 325 L 471 325 Z M 471 71.664062 " clip-rule="nonzero"/></clipPath><clipPath id="7240c07937"><path d="M 495 101 L 916.8125 101 L 916.8125 157 L 495 157 Z M 495 101 " clip-rule="nonzero"/></clipPath><clipPath id="6ef3f6b432"><path d="M 127.8125 145 L 610 145 L 610 504.414062 L 127.8125 504.414062 Z M 127.8125 145 " clip-rule="nonzero"/></clipPath></defs><g clip-path="url(#a30ff485c6)"><path fill="#f5e8a9" d="M 505.4375 71.867188 L 916.828125 119.015625 L 882.90625 324.851562 L 471.519531 277.707031 Z M 505.4375 71.867188 " fill-opacity="1" fill-rule="nonzero"/></g><path fill="#0000ff" d="M 499.925781 105.3125 L 911.492188 152.480469 " fill-opacity="1" fill-rule="nonzero"/><g clip-path="url(#7240c07937)"><path stroke-linecap="butt" transform="matrix(1.373492, 0.157404, -0.188744, 1.145395, 1694.047761, -1081.594522)" fill="none" stroke-linejoin="miter" d="M -713.531263 1134.298521 L -413.881375 1134.300166 " stroke="#ff0000" stroke-width="0.599" stroke-opacity="1" stroke-miterlimit="4"/></g><path stroke-linecap="butt" transform="matrix(1.373492, 0.157404, -0.188744, 1.145395, 1694.047761, -1081.594522)" fill-opacity="1" fill="#0000ff" fill-rule="nonzero" stroke-linejoin="miter" d="M -713.529392 1149.399497 L -413.879505 1149.401143 " stroke="#0011ff" stroke-width="0.599" stroke-opacity="1" stroke-miterlimit="4"/><path stroke-linecap="butt" transform="matrix(1.373492, 0.157404, -0.188744, 1.145395, 1694.047761, -1081.594522)" fill-opacity="1" fill="#0000ff" fill-rule="nonzero" stroke-linejoin="miter" d="M -713.530313 1164.500857 L -413.880886 1164.499156 " stroke="#0011ff" stroke-width="0.599" stroke-opacity="1" stroke-miterlimit="4"/><path stroke-linecap="butt" transform="matrix(1.373492, 0.157404, -0.188744, 1.145395, 1694.047761, -1081.594522)" fill-opacity="1" fill="#0000ff" fill-rule="nonzero" stroke-linejoin="miter" d="M -713.528903 1179.598486 L -413.879016 1179.600132 " stroke="#0011ff" stroke-width="0.599" stroke-opacity="1" stroke-miterlimit="4"/><path stroke-linecap="butt" transform="matrix(1.373492, 0.157404, -0.188744, 1.145395, 1694.047761, -1081.594522)" fill-opacity="1" fill="#0000ff" fill-rule="nonzero" stroke-linejoin="miter" d="M -713.529824 1194.699846 L -413.879937 1194.701492 " stroke="#0011ff" stroke-width="0.599" stroke-opacity="1" stroke-miterlimit="4"/><path stroke-linecap="butt" transform="matrix(1.373492, 0.157404, -0.188744, 1.145395, 1694.047761, -1081.594522)" fill-opacity="1" fill="#0000ff" fill-rule="nonzero" stroke-linejoin="miter" d="M -713.530745 1209.801206 L -413.881318 1209.799505 " stroke="#0011ff" stroke-width="0.599" stroke-opacity="1" stroke-miterlimit="4"/><path stroke-linecap="butt" transform="matrix(1.373492, 0.157404, -0.188744, 1.145395, 1694.047761, -1081.594522)" fill-opacity="1" fill="#0000ff" fill-rule="nonzero" stroke-linejoin="miter" d="M -713.529335 1224.898836 L -413.879448 1224.900482 " stroke="#0011ff" stroke-width="0.599" stroke-opacity="1" stroke-miterlimit="4"/><path stroke-linecap="butt" transform="matrix(1.373492, 0.157404, -0.188744, 1.145395, 1694.047761, -1081.594522)" fill-opacity="1" fill="#0000ff" fill-rule="nonzero" stroke-linejoin="miter" d="M -713.530256 1240.000196 L -413.880829 1239.998494 " stroke="#0011ff" stroke-width="0.599" stroke-opacity="1" stroke-miterlimit="4"/><path stroke-linecap="butt" transform="matrix(1.373492, 0.157404, -0.188744, 1.145395, 1694.047761, -1081.594522)" fill-opacity="1" fill="#0000ff" fill-rule="nonzero" stroke-linejoin="miter" d="M -713.531177 1255.101556 L -413.878959 1255.099471 " stroke="#0011ff" stroke-width="0.599" stroke-opacity="1" stroke-miterlimit="4"/><path stroke-linecap="butt" transform="matrix(1.373492, 0.157404, -0.188744, 1.145395, 1694.047761, -1081.594522)" fill-opacity="1" fill="#0000ff" fill-rule="nonzero" stroke-linejoin="miter" d="M -713.529767 1270.199185 L -413.87988 1270.200831 " stroke="#0011ff" stroke-width="0.599" stroke-opacity="1" stroke-miterlimit="4"/><path fill="#c2bae2" d="M 476.027344 102.746094 L 884.023438 168.820312 L 837.644531 378.042969 L 429.648438 311.972656 Z M 476.027344 102.746094 " fill-opacity="1" fill-rule="nonzero"/><path stroke-linecap="butt" transform="matrix(1.362165, 0.220593, -0.258092, 1.164241, 1903.532667, -1240.43952)" fill-opacity="1" fill="#0000ff" fill-rule="nonzero" stroke-linejoin="miter" d="M -800.631335 1334.700301 L -500.979087 1334.700662 " stroke="#ff0000" stroke-width="0.599" stroke-opacity="1" stroke-miterlimit="4"/><path stroke-linecap="butt" transform="matrix(1.362165, 0.220593, -0.258092, 1.164241, 1903.532667, -1240.43952)" fill-opacity="1" fill="#0000ff" fill-rule="nonzero" stroke-linejoin="miter" d="M -800.62975 1349.79836 L -500.98027 1349.799246 " stroke="#0011ff" stroke-width="0.599" stroke-opacity="1" stroke-miterlimit="4"/><path stroke-linecap="butt" transform="matrix(1.362165, 0.220593, -0.258092, 1.164241, 1903.532667, -1240.43952)" fill-opacity="1" fill="#0000ff" fill-rule="nonzero" stroke-linejoin="miter" d="M -800.630319 1364.900182 L -500.98084 1364.901068 " stroke="#0011ff" stroke-width="0.599" stroke-opacity="1" stroke-miterlimit="4"/><path stroke-linecap="butt" transform="matrix(1.362165, 0.220593, -0.258092, 1.164241, 1903.532667, -1240.43952)" fill-opacity="1" fill="#0000ff" fill-rule="nonzero" stroke-linejoin="miter" d="M -800.629921 1379.901166 L -500.981056 1379.898813 " stroke="#0011ff" stroke-width="0.599" stroke-opacity="1" stroke-miterlimit="4"/><path stroke-linecap="butt" transform="matrix(1.362165, 0.220593, -0.258092, 1.164241, 1903.532667, -1240.43952)" fill-opacity="1" fill="#0000ff" fill-rule="nonzero" stroke-linejoin="miter" d="M -800.631105 1394.99975 L -500.978857 1395.000111 " stroke="#0011ff" stroke-width="0.599" stroke-opacity="1" stroke-miterlimit="4"/><path stroke-linecap="butt" transform="matrix(1.362165, 0.220593, -0.258092, 1.164241, 1903.532667, -1240.43952)" fill-opacity="1" fill="#0000ff" fill-rule="nonzero" stroke-linejoin="miter" d="M -800.628906 1410.101048 L -500.98004 1410.098695 " stroke="#0011ff" stroke-width="0.599" stroke-opacity="1" stroke-miterlimit="4"/><path stroke-linecap="butt" transform="matrix(1.362165, 0.220593, -0.258092, 1.164241, 1903.532667, -1240.43952)" fill-opacity="1" fill="#0000ff" fill-rule="nonzero" stroke-linejoin="miter" d="M -800.630089 1425.199632 L -500.98061 1425.200518 " stroke="#0011ff" stroke-width="0.599" stroke-opacity="1" stroke-miterlimit="4"/><path stroke-linecap="butt" transform="matrix(1.362165, 0.220593, -0.258092, 1.164241, 1903.532667, -1240.43952)" fill-opacity="1" fill="#0000ff" fill-rule="nonzero" stroke-linejoin="miter" d="M -800.630659 1440.301454 L -500.979025 1440.298577 " stroke="#0011ff" stroke-width="0.599" stroke-opacity="1" stroke-miterlimit="4"/><path stroke-linecap="butt" transform="matrix(1.362165, 0.220593, -0.258092, 1.164241, 1903.532667, -1240.43952)" fill-opacity="1" fill="#0000ff" fill-rule="nonzero" stroke-linejoin="miter" d="M -800.629074 1455.399514 L -500.979594 1455.4004 " stroke="#0011ff" stroke-width="0.599" stroke-opacity="1" stroke-miterlimit="4"/><path stroke-linecap="butt" transform="matrix(1.362165, 0.220593, -0.258092, 1.164241, 1903.532667, -1240.43952)" fill-opacity="1" fill="#0000ff" fill-rule="nonzero" stroke-linejoin="miter" d="M -800.629643 1470.501336 L -500.980777 1470.498983 " stroke="#0011ff" stroke-width="0.599" stroke-opacity="1" stroke-miterlimit="4"/><path fill="#a6dfc4" d="M 414.894531 103.816406 L 818.324219 187.652344 L 759.28125 393.875 L 355.855469 310.039062 Z M 414.894531 103.816406 " fill-opacity="1" fill-rule="nonzero"/><path stroke-linecap="butt" transform="matrix(1.346915, 0.279902, -0.328535, 1.147529, 1956.215777, -1404.813676)" fill-opacity="1" fill="#0000ff" fill-rule="nonzero" stroke-linejoin="miter" d="M -777.399019 1533.501257 L -477.750363 1533.500332 " stroke="#ff0000" stroke-width="0.599" stroke-opacity="1" stroke-miterlimit="4"/><path stroke-linecap="butt" transform="matrix(1.346915, 0.279902, -0.328535, 1.147529, 1956.215777, -1404.813676)" fill-opacity="1" fill="#0000ff" fill-rule="nonzero" stroke-linejoin="miter" d="M -777.399755 1548.598414 L -477.750316 1548.600702 " stroke="#0011ff" stroke-width="0.599" stroke-opacity="1" stroke-miterlimit="4"/><path stroke-linecap="butt" transform="matrix(1.346915, 0.279902, -0.328535, 1.147529, 1956.215777, -1404.813676)" fill-opacity="1" fill="#0000ff" fill-rule="nonzero" stroke-linejoin="miter" d="M -777.399707 1563.698784 L -477.750268 1563.701072 " stroke="#0011ff" stroke-width="0.599" stroke-opacity="1" stroke-miterlimit="4"/><path stroke-linecap="butt" transform="matrix(1.346915, 0.279902, -0.328535, 1.147529, 1956.215777, -1404.813676)" fill-opacity="1" fill="#0000ff" fill-rule="nonzero" stroke-linejoin="miter" d="M -777.399659 1578.799154 L -477.75022 1578.801443 " stroke="#0011ff" stroke-width="0.599" stroke-opacity="1" stroke-miterlimit="4"/><path stroke-linecap="butt" transform="matrix(1.346915, 0.279902, -0.328535, 1.147529, 1956.215777, -1404.813676)" fill-opacity="1" fill="#0000ff" fill-rule="nonzero" stroke-linejoin="miter" d="M -777.399612 1593.899524 L -477.750956 1593.8986 " stroke="#0011ff" stroke-width="0.599" stroke-opacity="1" stroke-miterlimit="4"/><path stroke-linecap="butt" transform="matrix(1.346915, 0.279902, -0.328535, 1.147529, 1956.215777, -1404.813676)" fill-opacity="1" fill="#0000ff" fill-rule="nonzero" stroke-linejoin="miter" d="M -777.399564 1608.999894 L -477.750909 1608.99897 " stroke="#0011ff" stroke-width="0.599" stroke-opacity="1" stroke-miterlimit="4"/><path stroke-linecap="butt" transform="matrix(1.346915, 0.279902, -0.328535, 1.147529, 1956.215777, -1404.813676)" fill-opacity="1" fill="#0000ff" fill-rule="nonzero" stroke-linejoin="miter" d="M -777.399516 1624.100264 L -477.750861 1624.09934 " stroke="#0011ff" stroke-width="0.599" stroke-opacity="1" stroke-miterlimit="4"/><path stroke-linecap="butt" transform="matrix(1.346915, 0.279902, -0.328535, 1.147529, 1956.215777, -1404.813676)" fill-opacity="1" fill="#0000ff" fill-rule="nonzero" stroke-linejoin="miter" d="M -777.399469 1639.200634 L -477.750813 1639.19971 " stroke="#0011ff" stroke-width="0.599" stroke-opacity="1" stroke-miterlimit="4"/><path stroke-linecap="butt" transform="matrix(1.346915, 0.279902, -0.328535, 1.147529, 1956.215777, -1404.813676)" fill-opacity="1" fill="#0000ff" fill-rule="nonzero" stroke-linejoin="miter" d="M -777.399421 1654.301004 L -477.750766 1654.30008 " stroke="#0011ff" stroke-width="0.599" stroke-opacity="1" stroke-miterlimit="4"/><path stroke-linecap="butt" transform="matrix(1.346915, 0.279902, -0.328535, 1.147529, 1956.215777, -1404.813676)" fill-opacity="1" fill="#0000ff" fill-rule="nonzero" stroke-linejoin="miter" d="M -777.399373 1669.401375 L -477.750718 1669.40045 " stroke="#0011ff" stroke-width="0.599" stroke-opacity="1" stroke-miterlimit="4"/><path fill="#dca9b6" d="M 369.273438 134.167969 L 756.28125 259.238281 L 665.953125 452.144531 L 278.949219 327.074219 Z M 369.273438 134.167969 " fill-opacity="1" fill-rule="nonzero"/><path stroke-linecap="butt" transform="matrix(1.292083, 0.417573, -0.502625, 1.073434, 2065.880124, -1420.610805)" fill-opacity="1" fill="#0000ff" fill-rule="nonzero" stroke-linejoin="miter" d="M -651.110962 1730.999452 L -351.461679 1730.999041 " stroke="#ff0000" stroke-width="0.599" stroke-opacity="1" stroke-miterlimit="4"/><path stroke-linecap="butt" transform="matrix(1.292083, 0.417573, -0.502625, 1.073434, 2065.880124, -1420.610805)" fill-opacity="1" fill="#0000ff" fill-rule="nonzero" stroke-linejoin="miter" d="M -651.110444 1746.101187 L -351.461161 1746.100775 " stroke="#0011ff" stroke-width="0.599" stroke-opacity="1" stroke-miterlimit="4"/><path stroke-linecap="butt" transform="matrix(1.292083, 0.417573, -0.502625, 1.073434, 2065.880124, -1420.610805)" fill-opacity="1" fill="#0000ff" fill-rule="nonzero" stroke-linejoin="miter" d="M -651.110217 1761.101142 L -351.460934 1761.100731 " stroke="#0011ff" stroke-width="0.599" stroke-opacity="1" stroke-miterlimit="4"/><path stroke-linecap="butt" transform="matrix(1.292083, 0.417573, -0.502625, 1.073434, 2065.880124, -1420.610805)" fill-opacity="1" fill="#0000ff" fill-rule="nonzero" stroke-linejoin="miter" d="M -651.110928 1776.199716 L -351.461646 1776.199305 " stroke="#0011ff" stroke-width="0.599" stroke-opacity="1" stroke-miterlimit="4"/><path stroke-linecap="butt" transform="matrix(1.292083, 0.417573, -0.502625, 1.073434, 2065.880124, -1420.610805)" fill-opacity="1" fill="#0000ff" fill-rule="nonzero" stroke-linejoin="miter" d="M -651.110411 1791.301451 L -351.458502 1791.300018 " stroke="#0011ff" stroke-width="0.599" stroke-opacity="1" stroke-miterlimit="4"/><path stroke-linecap="butt" transform="matrix(1.292083, 0.417573, -0.502625, 1.073434, 2065.880124, -1420.610805)" fill-opacity="1" fill="#0000ff" fill-rule="nonzero" stroke-linejoin="miter" d="M -651.111122 1806.400025 L -351.459214 1806.398592 " stroke="#0011ff" stroke-width="0.599" stroke-opacity="1" stroke-miterlimit="4"/><path stroke-linecap="butt" transform="matrix(1.292083, 0.417573, -0.502625, 1.073434, 2065.880124, -1420.610805)" fill-opacity="1" fill="#0000ff" fill-rule="nonzero" stroke-linejoin="miter" d="M -651.110604 1821.501759 L -351.458696 1821.500326 " stroke="#0011ff" stroke-width="0.599" stroke-opacity="1" stroke-miterlimit="4"/><path stroke-linecap="butt" transform="matrix(1.292083, 0.417573, -0.502625, 1.073434, 2065.880124, -1420.610805)" fill-opacity="1" fill="#0000ff" fill-rule="nonzero" stroke-linejoin="miter" d="M -651.111316 1836.600333 L -351.459407 1836.5989 " stroke="#0011ff" stroke-width="0.599" stroke-opacity="1" stroke-miterlimit="4"/><path stroke-linecap="butt" transform="matrix(1.292083, 0.417573, -0.502625, 1.073434, 2065.880124, -1420.610805)" fill-opacity="1" fill="#0000ff" fill-rule="nonzero" stroke-linejoin="miter" d="M -651.108172 1851.701046 L -351.458889 1851.700635 " stroke="#0011ff" stroke-width="0.599" stroke-opacity="1" stroke-miterlimit="4"/><path stroke-linecap="butt" transform="matrix(1.292083, 0.417573, -0.502625, 1.073434, 2065.880124, -1420.610805)" fill-opacity="1" fill="#0000ff" fill-rule="nonzero" stroke-linejoin="miter" d="M -651.108884 1866.79962 L -351.459601 1866.799209 " stroke="#0011ff" stroke-width="0.599" stroke-opacity="1" stroke-miterlimit="4"/><g clip-path="url(#6ef3f6b432)"><path fill="#c4e1e4" d="M 277.113281 145.683594 L 609.636719 344.515625 L 460.402344 504.007812 L 127.878906 305.171875 Z M 277.113281 145.683594 " fill-opacity="1" fill-rule="nonzero"/></g><path stroke-linecap="butt" transform="matrix(1.110187, 0.663843, -0.830412, 0.887485, 1919.060168, -1032.844772)" fill-opacity="1" fill="#0000ff" fill-rule="nonzero" stroke-linejoin="miter" d="M -311.439054 1590.099713 L -11.78815 1590.100447 " stroke="#ff0000" stroke-width="0.599" stroke-opacity="1" stroke-miterlimit="4"/><path stroke-linecap="butt" transform="matrix(1.110187, 0.663843, -0.830412, 0.887485, 1919.060168, -1032.844772)" fill-opacity="1" fill="#0000ff" fill-rule="nonzero" stroke-linejoin="miter" d="M -311.438249 1605.200604 L -11.789456 1605.198516 " stroke="#0011ff" stroke-width="0.599" stroke-opacity="1" stroke-miterlimit="4"/><path stroke-linecap="butt" transform="matrix(1.110187, 0.663843, -0.830412, 0.887485, 1919.060168, -1032.844772)" fill-opacity="1" fill="#0000ff" fill-rule="nonzero" stroke-linejoin="miter" d="M -311.439555 1620.298672 L -11.790908 1620.301094 " stroke="#0011ff" stroke-width="0.599" stroke-opacity="1" stroke-miterlimit="4"/><path stroke-linecap="butt" transform="matrix(1.110187, 0.663843, -0.830412, 0.887485, 1919.060168, -1032.844772)" fill-opacity="1" fill="#0000ff" fill-rule="nonzero" stroke-linejoin="miter" d="M -311.438751 1635.399563 L -11.790103 1635.401985 " stroke="#0011ff" stroke-width="0.599" stroke-opacity="1" stroke-miterlimit="4"/><path stroke-linecap="butt" transform="matrix(1.110187, 0.663843, -0.830412, 0.887485, 1919.060168, -1032.844772)" fill-opacity="1" fill="#0000ff" fill-rule="nonzero" stroke-linejoin="miter" d="M -311.437946 1650.500454 L -11.791409 1650.500054 " stroke="#0011ff" stroke-width="0.599" stroke-opacity="1" stroke-miterlimit="4"/><path stroke-linecap="butt" transform="matrix(1.110187, 0.663843, -0.830412, 0.887485, 1919.060168, -1032.844772)" fill-opacity="1" fill="#0000ff" fill-rule="nonzero" stroke-linejoin="miter" d="M -311.441508 1665.600211 L -11.790604 1665.600945 " stroke="#0011ff" stroke-width="0.599" stroke-opacity="1" stroke-miterlimit="4"/><path stroke-linecap="butt" transform="matrix(1.110187, 0.663843, -0.830412, 0.887485, 1919.060168, -1032.844772)" fill-opacity="1" fill="#0000ff" fill-rule="nonzero" stroke-linejoin="miter" d="M -311.440703 1680.701102 L -11.789799 1680.701836 " stroke="#0011ff" stroke-width="0.599" stroke-opacity="1" stroke-miterlimit="4"/><path stroke-linecap="butt" transform="matrix(1.110187, 0.663843, -0.830412, 0.887485, 1919.060168, -1032.844772)" fill-opacity="1" fill="#0000ff" fill-rule="nonzero" stroke-linejoin="miter" d="M -311.439898 1695.801993 L -11.791106 1695.799905 " stroke="#0011ff" stroke-width="0.599" stroke-opacity="1" stroke-miterlimit="4"/><path stroke-linecap="butt" transform="matrix(1.110187, 0.663843, -0.830412, 0.887485, 1919.060168, -1032.844772)" fill-opacity="1" fill="#0000ff" fill-rule="nonzero" stroke-linejoin="miter" d="M -311.441205 1710.900061 L -11.790301 1710.900796 " stroke="#0011ff" stroke-width="0.599" stroke-opacity="1" stroke-miterlimit="4"/><path stroke-linecap="butt" transform="matrix(1.110187, 0.663843, -0.830412, 0.887485, 1919.060168, -1032.844772)" fill-opacity="1" fill="#0000ff" fill-rule="nonzero" stroke-linejoin="miter" d="M -311.4404 1726.000952 L -11.789496 1726.001687 " stroke="#0011ff" stroke-width="0.599" stroke-opacity="1" stroke-miterlimit="4"/></svg>