<svg xmlns="http://www.w3.org/2000/svg" xmlns:xlink="http://www.w3.org/1999/xlink" width="500" zoomAndPan="magnify" viewBox="0 0 375 374.999991" height="500" preserveAspectRatio="xMidYMid meet" version="1.0"><defs><clipPath id="669edebc65"><path d="M 121.875 118.25 L 253.125 118.25 L 253.125 156 L 121.875 156 Z M 121.875 118.25 " clip-rule="nonzero"/></clipPath><clipPath id="0d2d16b877"><path d="M 131 165 L 244 165 L 244 268.25 L 131 268.25 Z M 131 165 " clip-rule="nonzero"/></clipPath></defs><g clip-path="url(#669edebc65)"><path fill="#000000" d="M 248.4375 136.648438 L 215.625 136.648438 L 215.625 122.9375 C 215.625 120.359375 213.515625 118.25 210.9375 118.25 L 164.0625 118.25 C 161.484375 118.25 159.375 120.359375 159.375 122.9375 L 159.375 136.648438 L 126.5625 136.648438 C 123.984375 136.648438 121.875 138.757812 121.875 141.335938 L 121.875 150.710938 C 121.875 153.289062 123.984375 155.398438 126.5625 155.398438 L 248.4375 155.398438 C 251.015625 155.398438 253.125 153.289062 253.125 150.710938 L 253.125 141.335938 C 253.125 138.757812 251.015625 136.648438 248.4375 136.648438 Z M 248.4375 136.648438 " fill-opacity="1" fill-rule="nonzero"/></g><g clip-path="url(#0d2d16b877)"><path fill="#000000" d="M 142.5 264.148438 C 142.734375 266.492188 144.726562 268.25 147.1875 268.25 L 227.929688 268.25 C 230.273438 268.25 232.265625 266.492188 232.617188 264.148438 L 243.867188 165.242188 L 131.25 165.242188 Z M 206.25 248.914062 L 214.453125 183.40625 C 214.804688 180.828125 217.148438 179.070312 219.726562 179.304688 C 222.304688 179.65625 224.0625 182 223.828125 184.578125 L 215.625 250.085938 C 215.273438 252.429688 213.28125 254.1875 210.9375 254.1875 C 210.703125 254.1875 210.585938 254.1875 210.351562 254.1875 C 207.773438 253.835938 206.015625 251.492188 206.25 248.914062 Z M 182.8125 183.992188 C 182.8125 181.414062 184.921875 179.304688 187.5 179.304688 C 190.078125 179.304688 192.1875 181.414062 192.1875 183.992188 L 192.1875 249.5 C 192.1875 252.078125 190.078125 254.1875 187.5 254.1875 C 184.921875 254.1875 182.8125 252.078125 182.8125 249.5 Z M 155.273438 179.304688 C 157.851562 178.953125 160.195312 180.828125 160.546875 183.40625 L 168.75 248.914062 C 169.101562 251.492188 167.226562 253.835938 164.648438 254.1875 C 164.414062 254.1875 164.296875 254.1875 164.0625 254.1875 C 161.71875 254.1875 159.726562 252.429688 159.375 250.085938 L 151.171875 184.578125 C 150.9375 182 152.695312 179.65625 155.273438 179.304688 Z M 155.273438 179.304688 " fill-opacity="1" fill-rule="nonzero"/></g></svg>